<svg xmlns="http://www.w3.org/2000/svg" xmlns:xlink="http://www.w3.org/1999/xlink" width="96.5" height="81.89" viewBox="0 0 96.5 81.89"><defs><clipPath id="a" transform="translate(-0.63 -0.95)"><rect x="0.48" y="0.8" width="96.8" height="82.19" fill="none"/></clipPath></defs><title>icon-employment</title><g clip-path="url(#a)"><path d="M68.3,21.47C79.75,23,89.16,22.66,94.06,15.31c4.64-7-.27-12.59-7-13.08C77.2,1.51,61.54,15.08,62.9,32.51" transform="translate(-0.63 -0.95)" fill="none" stroke="#646565" stroke-linejoin="round" stroke-width="2.5"/><path d="M60.46,18s-19.23-5.06-24.75-5.56C12.88,10.33,9.57,26.9,9.57,32.51" transform="translate(-0.63 -0.95)" fill="none" stroke="#646565" stroke-linejoin="round" stroke-width="2.5"/><path d="M66.83,73v-1.5c0-4.64-3.5-7.71-8.39-8.81l-4.2,4.21L50,62.65c-4.88,1.1-8.38,4.17-8.38,8.81V73" transform="translate(-0.63 -0.95)" fill="none" stroke="#646565" stroke-linejoin="round" stroke-width="2.5"/><path d="M61.89,49.41a7.65,7.65,0,1,0-7.65,7.64A7.65,7.65,0,0,0,61.89,49.41Z" transform="translate(-0.63 -0.95)" fill="none" stroke="#646565" stroke-linejoin="round" stroke-width="2.5"/><rect x="1.25" y="31.56" width="75.67" height="49.08" rx="3.15" stroke-width="2.5" stroke="#646565" stroke-linecap="round" stroke-linejoin="round" fill="none"/><line x1="10.65" y1="47.18" x2="36.16" y2="47.18" fill="none" stroke="#646565" stroke-linejoin="round" stroke-width="2.5"/><line x1="10.65" y1="56.1" x2="26.68" y2="56.1" fill="none" stroke="#646565" stroke-linejoin="round" stroke-width="2.5"/></g></svg>