<svg xmlns="http://www.w3.org/2000/svg" xmlns:xlink="http://www.w3.org/1999/xlink" width="108.14" height="73.64" viewBox="0 0 108.14 73.64"><defs><clipPath id="a" transform="translate(-0.7 -0.03)"><rect x="0.52" y="-0.15" width="108.5" height="68.6" fill="none"/></clipPath></defs><title>icon-statelaws</title><g clip-path="url(#a)"><path d="M77.51,15.12c.18.32-.11,1-.36,1.66a.91.91,0,0,0,1,1.21,2,2,0,0,1,1.87.84l1.45,2.11a.8.8,0,0,1,.11.62l-.4,1.53a.66.66,0,0,0,.72.82,3.16,3.16,0,0,0,1.58-.65l3.12-2.43,0,0L90.72,17a.28.28,0,0,0,.09-.1l1.71-3.18A.73.73,0,0,1,93,13.3l5.22-1.36a.42.42,0,0,0,.29-.26l2.25-6.31a.75.75,0,0,1,.78-.49l2.83.28a.78.78,0,0,1,.59.4l2.56,4.9a.78.78,0,0,1-.15.9l-4,3.83a.42.42,0,0,0-.13.34l.35,4.17a.77.77,0,0,1-.29.66l-4.17,3.21a.37.37,0,0,0-.16.3l-.25,3.19a.77.77,0,0,1-.36.59l-1.63,1a.4.4,0,0,0-.19.28l-.77,3.76a.39.39,0,0,0,0,.28l2.09,4a.76.76,0,0,1-.09.83l-3.63,4.38,0,0-5.72,7.83a.4.4,0,0,0,0,.41l2.55,6a.65.65,0,0,1,0,.13l1.66,7.58a.75.75,0,0,1-.77.91H88.61a.77.77,0,0,1-.64-.34l-3.34-5.17a.6.6,0,0,1-.1-.23L84,57.07a.42.42,0,0,0-.31-.31l-4.13-.89h0L74,55.18a.5.5,0,0,0-.27,0l-3.18,1.89a.43.43,0,0,1-.12.05L67,58.45a.86.86,0,0,1-.32,0l-7.3-.58a.4.4,0,0,0-.28.08l-5,3.63A.42.42,0,0,0,54,62v4.3a.77.77,0,0,1-.32.62.75.75,0,0,1-.43.13A.65.65,0,0,1,53,67l-4.42-1.66a.76.76,0,0,1-.41-.38l-3-6a.45.45,0,0,0-.21-.2l-3.1-1.39a.42.42,0,0,0-.44.07l-1.3,1.1a.72.72,0,0,1-.58.17A.77.77,0,0,1,39,58.4l-2.89-4.12a.41.41,0,0,0-.14-.12L30.26,51a.46.46,0,0,0-.2-.05H24a.8.8,0,0,1-.4-.11l-7.22-4.47a.38.38,0,0,0-.13-.06l-4.84-1a.73.73,0,0,1-.43-.25L5.89,39.24A.77.77,0,0,1,5.75,39l-2-5.91,0-.11-1-5.5v0L2,21.83a.69.69,0,0,1,0-.32L3.4,16.8l0-.09L7.16,7.2a.57.57,0,0,0,0-.18L6.88,2.3a.78.78,0,0,1,.35-.68.74.74,0,0,1,.76,0l2.35,1.25a.42.42,0,0,0,.58-.21l.37-.89a.76.76,0,0,1,.88-.44l9.14,2.3h0L31.91,5.43h0L44.21,6.86h0l12.81.42a.76.76,0,0,1,.27,0l2.22.93a.41.41,0,0,0,.16,0l1.95,0a.74.74,0,0,1,.25.05l2.22.83.13,0,2.5.1a.74.74,0,0,1,.63,1.11l-.16.3a.42.42,0,0,0,.52.59l2-.76a.76.76,0,0,1,.84.21l1.18,1.37a.41.41,0,0,0,.43.12l2.77-.76a.78.78,0,0,1,.63.1Z" transform="translate(-0.7 -0.03)" fill="none" stroke="#646565" stroke-miterlimit="10" stroke-width="2.5"/></g><path d="M27.59,65.91s.19-.21.3-.06-.18.3-.18.3-.24,0-.19-.18Z" transform="translate(-0.7 -0.03)" fill="#fff" stroke="#646565" stroke-miterlimit="10" stroke-width="2.5"/><path d="M29.32,65.86a.63.63,0,0,0-.08-.52c-.13-.12-.51,0-.51,0s-.3.24-.22.35.24.3.32.28S29.23,66.07,29.32,65.86Z" transform="translate(-0.7 -0.03)" fill="#fff" stroke="#646565" stroke-miterlimit="10" stroke-width="2.5"/><path d="M31.35,66.47l.34-.2s.11-.11.41.4c0,0,0,.2.29.36s-.31.28-.43.2-.2,0-.31-.06-.23-.15-.29-.26l-.09-.08a.14.14,0,0,1-.06-.19C31.27,66.48,31.35,66.47,31.35,66.47Z" transform="translate(-0.7 -0.03)" fill="#fff" stroke="#646565" stroke-miterlimit="10" stroke-width="2.5"/><path d="M33.54,68.07a.18.18,0,0,1,.18-.26A.42.42,0,0,1,34,68a.19.19,0,0,1,0,.21.25.25,0,0,1-.14.16c-.06,0-.14,0-.18,0S33.58,68.16,33.54,68.07Z" transform="translate(-0.7 -0.03)" fill="#fff" stroke="#646565" stroke-miterlimit="10" stroke-width="2.5"/><path d="M33.1,67.34a.51.51,0,0,1,.35,0,1.31,1.31,0,0,0,.5,0s.39,0,.29.17a.62.62,0,0,1-.39.22,1.65,1.65,0,0,1-.43-.09,1.23,1.23,0,0,0-.32-.09S33,67.47,33.1,67.34Z" transform="translate(-0.7 -0.03)" fill="#fff" stroke="#646565" stroke-miterlimit="10" stroke-width="2.5"/><path d="M34.25,67.74a.2.2,0,0,1,.25-.07,2.62,2.62,0,0,0,.69.23.49.49,0,0,1,.46.45,1.54,1.54,0,0,1-.54.27c-.27,0-.56-.07-.6-.27a.46.46,0,0,0-.26-.31A.34.34,0,0,1,34.25,67.74Z" transform="translate(-0.7 -0.03)" fill="#fff" stroke="#646565" stroke-miterlimit="10" stroke-width="2.5"/><path d="M35.5,70a.44.44,0,0,0,.3-.37.3.3,0,0,1-.13-.38c.08-.27.39,0,.39,0a1.91,1.91,0,0,0,.72.31c.25,0,.63.65.63.65s0,.29.36.41-.61.57-.61.57a.57.57,0,0,0-.65.28c-.19.4-.32.45-.32.45s-.08.07-.47-.25a1.05,1.05,0,0,1,0-.67s0-.51-.24-.6a.25.25,0,0,1-.13-.11A.2.2,0,0,1,35.5,70Z" transform="translate(-0.7 -0.03)" fill="#fff" stroke="#646565" stroke-miterlimit="10" stroke-width="2.5"/><path d="M20.74,60.19v7.62s.15.41.49.08.47.55.47.55.45.2.51.38.32.05.32-.25.48-.41.71-.15,1.06,1.32,1.43,1.92a1,1,0,0,0,.47.4,5.42,5.42,0,0,1,.53.25c.49.25,0,1.2,0,1.2s-.24.13-.4-.32c-.09-.24-.2-.28-.29-.26a.14.14,0,0,0-.09.19,1.52,1.52,0,0,0,.13.26s.07.3-.12.27a.31.31,0,0,1-.25-.23s-.09,0,0,.08a.83.83,0,0,1,.08.21.15.15,0,0,1-.18,0c-.08-.08-.2-.4-.32-.44s-.2-.2-.1-.28,0-.06,0-.08a.86.86,0,0,1-.05-.32c0-.08,0-.14-.05-.13a.07.07,0,0,0-.08.08c0,.08-.09.18-.14.16s-.09-.17-.07-.3a.22.22,0,0,0-.07-.19s-.08,0-.09.24a.06.06,0,0,1-.1,0l-.19-.3a.46.46,0,0,0-.3-.26s-.13-.2-.08-.34-.29-.34-.29-.34a.31.31,0,0,1,0-.35c.06-.08,0-.1-.15-.1a.55.55,0,0,1-.42-.17,3.92,3.92,0,0,0-2.43-1.19.32.32,0,0,1-.35,0,5.9,5.9,0,0,0-.85-.62c-.38-.18-.46,0-.46,0s-.11.1.16.24-.08.38-.11.38-.11.17-.44-.05-.92.38-.92.38-.74,0-.63-.19.32-.58.32-.58,0-.48.2-.49a5.6,5.6,0,0,0,.61-.11s.16-.12-.31-.18-.95.83-.95.83a1.63,1.63,0,0,1-.58.49c-.18.08-.12.18,0,.25a.22.22,0,0,1,0,.32A4.68,4.68,0,0,1,13.3,70s-.44.07-.41.33-.47.14-.47.14a.18.18,0,0,0-.23.17c0,.22-.17-.09-.17-.09s-.11-.11-.26.06-.31.07-.45,0a.36.36,0,0,0-.23,0,1.07,1.07,0,0,1-.42.08.5.5,0,0,1-.37.22.45.45,0,0,1-.27-.06c-.06,0-.18-.09-.23,0s-.18,0-.27.07-.26-.42.54-.37c.53,0,.69-.1.74-.2a.31.31,0,0,1,.17-.17.92.92,0,0,1,.58,0,.36.36,0,0,0,.3-.06,1.09,1.09,0,0,1,.84-.24s.12.07.19-.15.38-.3.38-.3.54-.78.42-.84a.45.45,0,0,0-.16,0,.2.2,0,0,1-.19-.18s0-.06,0-.06-.12,0-.13.21-.26,0-.25-.16c0,0,0-.28-.15-.22s-.2-.14-.2-.14-.29-.1-.38,0-.35,0-.3-.16.21-.37.16-.62,0-.35-.1-.31-.72,0-.7-.18a.68.68,0,0,0-.21-.52c-.11-.07.23-.48.23-.48s.07-.05-.19-.19.14-.84.72-1.29.66,0,.66,0,.12.28.43,0,.29,0,.33,0,.42,0,.34-.22a1,1,0,0,1,.16-.63s0-.12-.34,0a1,1,0,0,1-.67-.11s-.85-.2-.82-.61a1.35,1.35,0,0,0-.31-.8s-.18-.42.53-.34c0,0,.52.14.73,0a.32.32,0,0,1,.34,0,.19.19,0,0,1,.06.3c0,.06-.07.12,0,.16a1.19,1.19,0,0,0,.54.22.64.64,0,0,0-.07-.64,1.29,1.29,0,0,1-.23-.75c0-.07-.43-.73-.47-.74s-.05-.59.87-.39h.26s.45-.68.66-.76.2.11.26.11a3.81,3.81,0,0,0,.41-.23,2.87,2.87,0,0,1,.66,0s.22-.43.34-.33a1.16,1.16,0,0,1,.57.62h.12s-.05-.06,0-.09.42-.14.45.07,0,.47.24.46a1.25,1.25,0,0,1,.92.26.36.36,0,0,0,.23.09.83.83,0,0,1,.47.16.2.2,0,0,0,.11,0h0a.19.19,0,0,0,.16-.09.09.09,0,0,1,.09-.05C19.91,59.74,20.74,60.19,20.74,60.19Z" transform="translate(-0.7 -0.03)" fill="#fff" stroke="#646565" stroke-miterlimit="10" stroke-width="2.5"/><path d="M15.09,69.4s.54-.35.54-.45.39,0,.32.19-.42.26-.42.26,0,.12.19.25-.41.51-.41.51-.22.24-.37.2-.35-.2-.36-.3a.4.4,0,0,1,.15-.43A3.35,3.35,0,0,0,15.09,69.4Z" transform="translate(-0.7 -0.03)" fill="#fff" stroke="#646565" stroke-miterlimit="10" stroke-width="2.5"/><path d="M13.83,70.84a.15.15,0,0,1,.06,0,.23.23,0,0,1,.11,0,.09.09,0,0,1,0,.11.1.1,0,0,1-.11.09h-.07A.23.23,0,0,1,13.83,70.84Z" transform="translate(-0.7 -0.03)" fill="#fff" stroke="#646565" stroke-miterlimit="10" stroke-width="2.5"/><path d="M7,71.12s.54-.5.92-.1c0,0,.23.1.31-.23s.44.12.44.12,0,.26-.36.31-.63-.23-1,0S7,71.12,7,71.12Z" transform="translate(-0.7 -0.03)" fill="#fff" stroke="#646565" stroke-miterlimit="10" stroke-width="2.5"/><path d="M10,66a.17.17,0,0,1,.19-.22c.16,0,.56.11.59.22s0,.4-.26.4-.41-.26-.41-.26A.51.51,0,0,1,10,66Z" transform="translate(-0.7 -0.03)" fill="#fff" stroke="#646565" stroke-miterlimit="10" stroke-width="2.5"/><path d="M9.7,62.85s.36-.07.57.49c0,0,.06.15.24,0s-.13-.47-.25-.62a.17.17,0,0,0-.11-.06c-.06,0-.15,0-.14-.19s-.34,0-.34,0S9.54,62.79,9.7,62.85Z" transform="translate(-0.7 -0.03)" fill="#fff" stroke="#646565" stroke-miterlimit="10" stroke-width="2.5"/><path d="M8.22,64.55s.19.29.17.41-.14,0-.14,0-.16-.22-.16-.22,0-.17,0-.19S8.22,64.55,8.22,64.55Z" transform="translate(-0.7 -0.03)" fill="#fff" stroke="#646565" stroke-miterlimit="10" stroke-width="2.5"/></svg>