<svg xmlns="http://www.w3.org/2000/svg" xmlns:xlink="http://www.w3.org/1999/xlink" width="85.38" height="76.77" viewBox="0 0 85.38 76.77"><defs><clipPath id="a" transform="translate(-0.86 -0.91)"><rect x="0.68" y="0.7" width="85.74" height="77.19" fill="none"/></clipPath></defs><title>icon-injuries</title><g clip-path="url(#a)"><path d="M75,76.43h-63a10.06,10.06,0,0,1-10-10.12V25.79a10.06,10.06,0,0,1,10-10.12H75A10.06,10.06,0,0,1,85,25.79V66.31A10.06,10.06,0,0,1,75,76.43Z" transform="translate(-0.86 -0.91)" fill="none" stroke="#646565" stroke-linecap="round" stroke-linejoin="round" stroke-width="2.5"/><path d="M58.47,15.67V5.54a3.36,3.36,0,0,0-3.32-3.38H32a3.36,3.36,0,0,0-3.32,3.38V15.67Z" transform="translate(-0.86 -0.91)" fill="none" stroke="#646565" stroke-linecap="round" stroke-linejoin="round" stroke-width="2.5"/><polygon points="57.6 39.23 48.49 39.23 48.49 29.95 36.89 29.95 36.89 39.23 27.77 39.23 27.77 51.05 36.89 51.05 36.89 60.33 48.49 60.33 48.49 51.05 57.6 51.05 57.6 39.23" fill="none" stroke="#646565" stroke-linecap="round" stroke-linejoin="round" stroke-width="2.5"/></g></svg>