<svg xmlns="http://www.w3.org/2000/svg" xmlns:xlink="http://www.w3.org/1999/xlink" width="63.63" height="88.88" viewBox="0 0 63.63 88.88"><defs><clipPath id="a" transform="translate(-0.25 -0.88)"><rect x="0.25" y="0.88" width="63.63" height="88.88" fill="none"/></clipPath></defs><title>icon-family</title><g clip-path="url(#a)"><path d="M18.58,20.57c-5.27,0-9.51-6-9.51-10.93S13.34.88,18.58.88s9.51,3.93,9.51,8.76-4.25,10.93-9.51,10.93m0-17.34a6.71,6.71,0,0,0-7,6.41c0,3.75,3.38,8.58,7,8.58s7-4.83,7-8.58a6.71,6.71,0,0,0-7-6.41" transform="translate(-0.25 -0.88)" fill="#646565"/><path d="M45.55,20.57c-5.27,0-9.51-6-9.51-10.93S40.31.88,45.55.88s9.5,3.93,9.5,8.76-4.24,10.93-9.5,10.93m0-17.34a6.71,6.71,0,0,0-7,6.41c0,3.75,3.38,8.58,7,8.58s7-4.83,7-8.58a6.72,6.72,0,0,0-7-6.41" transform="translate(-0.25 -0.88)" fill="#646565"/><path d="M53.54,89.76h-16a3.08,3.08,0,0,1-3.19-2.94V61.31h2.55V86.82a.62.62,0,0,0,.64.59h6.72V54h2.55V87.41h6.72a.63.63,0,0,0,.65-.59v-50h2.55V54a2.3,2.3,0,0,0,4.59,0V37c0-6.13-5.42-11.12-12.07-11.12H40A13,13,0,0,0,32.81,28l-.75.49L31.32,28a13,13,0,0,0-7.22-2.15H14.87C8.21,25.84,2.8,30.83,2.8,37V54a2.21,2.21,0,0,0,2.29,2.11A2.21,2.21,0,0,0,7.39,54V36.8H9.94v50a.62.62,0,0,0,.64.59H17.3V54h2.55V87.41h6.73a.62.62,0,0,0,.64-.59V61.31h2.55V86.82a3.08,3.08,0,0,1-3.19,2.94h-16a3.08,3.08,0,0,1-3.19-2.94V57.9a5.29,5.29,0,0,1-2.3.53A4.67,4.67,0,0,1,.25,54V37c0-7.42,6.56-13.46,14.62-13.46H24.1a15.75,15.75,0,0,1,8,2.12,15.79,15.79,0,0,1,8-2.12h9.23c8.06,0,14.62,6,14.62,13.46V54A4.67,4.67,0,0,1,59,58.43a5.25,5.25,0,0,1-2.29-.53V86.82a3.09,3.09,0,0,1-3.2,2.94" transform="translate(-0.25 -0.88)" fill="#646565"/><path d="M32.06,58.44a3.71,3.71,0,0,1-2.81-1.24L17.75,44a7.87,7.87,0,0,1-1.4-8.17,8.11,8.11,0,0,1,6.28-4.92,10.23,10.23,0,0,1,1.77-.15,10.12,10.12,0,0,1,7.66,3.4,10.12,10.12,0,0,1,7.66-3.4,10.34,10.34,0,0,1,1.78.15,8.11,8.11,0,0,1,6.28,4.92A7.89,7.89,0,0,1,46.38,44L34.87,57.2a3.71,3.71,0,0,1-2.81,1.24M24.4,33.09a8.2,8.2,0,0,0-1.32.11,5.55,5.55,0,0,0-4.34,3.43,5.69,5.69,0,0,0,1,5.89L31.24,55.73a1.1,1.1,0,0,0,.82.36,1.08,1.08,0,0,0,.82-.36L44.4,42.52a5.69,5.69,0,0,0,1-5.89,5.58,5.58,0,0,0-4.34-3.43,7.65,7.65,0,0,0-7.85,3.62L32.06,38.9l-1.13-2.08a7.4,7.4,0,0,0-6.53-3.73" transform="translate(-0.25 -0.88)" fill="#646565"/></g></svg>