<svg xmlns="http://www.w3.org/2000/svg" xmlns:xlink="http://www.w3.org/1999/xlink" width="56.69" height="94.77" viewBox="0 0 56.69 94.77"><defs><clipPath id="a" transform="translate(-0.85 -1.01)"><rect x="0.85" y="1.01" width="56.69" height="94.77" fill="none"/></clipPath></defs><title>icon-dui</title><g clip-path="url(#a)"><path d="M56.79,52.71,47.87,25a1.4,1.4,0,0,0-1.33-1H11.84a1.41,1.41,0,0,0-1.34,1L1.58,52.71a14.83,14.83,0,0,0,2,13.22,13.84,13.84,0,0,0,11.4,6h3.66c6.18,0,9,4.83,9.15,9.61v6.64a26.89,26.89,0,0,0-13.48,5,1.45,1.45,0,0,0-.57,1.61,1.41,1.41,0,0,0,1.35,1h28.2a1.4,1.4,0,0,0,1.34-1,1.46,1.46,0,0,0-.56-1.61,27,27,0,0,0-13.48-5V81.52c.1-4.78,3-9.61,9.14-9.61H43.4a13.82,13.82,0,0,0,11.39-6,14.8,14.8,0,0,0,2-13.22M12.85,26.91H45.53l8.6,26.7a12.08,12.08,0,0,1,.53,4.79,32.64,32.64,0,0,1-24.95-.28,34.8,34.8,0,0,0-26-.7,11.92,11.92,0,0,1,.58-3.81Zm7.66,66a21.1,21.1,0,0,1,8.61-2l.07,0,.06,0a21.15,21.15,0,0,1,8.62,2Zm32-28.66A11.09,11.09,0,0,1,43.4,69H39.73a11.16,11.16,0,0,0-10.54,6.47A11.17,11.17,0,0,0,18.64,69H15a11.07,11.07,0,0,1-9.12-4.79A11.91,11.91,0,0,1,4,60.32a32.22,32.22,0,0,1,24.63.47,36.86,36.86,0,0,0,14,2.84,35.36,35.36,0,0,0,11.26-1.91,12.43,12.43,0,0,1-1.37,2.53" transform="translate(-0.85 -1.01)" fill="#646565"/><path d="M14.59,21.31a1.41,1.41,0,0,0,1.34,1,1.41,1.41,0,0,0,1.34-1.86,13.38,13.38,0,0,1-.48-2.38A12.83,12.83,0,0,1,23.23,5.45a12.45,12.45,0,0,1,10.82-.62,12.75,12.75,0,0,1,7.24,8.1,13.1,13.1,0,0,1,0,7.52,1.44,1.44,0,0,0,.93,1.79,1.41,1.41,0,0,0,1.75-1,15.93,15.93,0,0,0,0-9.2,15.54,15.54,0,0,0-8.86-9.9,15.13,15.13,0,0,0-13.21.75A15.71,15.71,0,0,0,14,18.4a16.68,16.68,0,0,0,.59,2.91" transform="translate(-0.85 -1.01)" fill="#646565"/><path d="M27.46,10.68a6.11,6.11,0,0,0-3.63,3.08,6.36,6.36,0,0,0-.44,4.8,6.21,6.21,0,0,0,3,3.72,6,6,0,0,0,4.7.45,6.19,6.19,0,0,0,3.63-3.09,6.35,6.35,0,0,0,.44-4.8,6.15,6.15,0,0,0-7.71-4.16m4.79,7.62a3.32,3.32,0,0,1-2,1.68,3.23,3.23,0,0,1-2.56-.24,3.41,3.41,0,0,1-1.64-2,3.46,3.46,0,0,1,.24-2.62,3.36,3.36,0,0,1,2-1.68,3.11,3.11,0,0,1,1-.16,3.38,3.38,0,0,1,3.21,2.43,3.48,3.48,0,0,1-.24,2.61" transform="translate(-0.85 -1.01)" fill="#646565"/><path d="M21.61,30.33a15.12,15.12,0,0,0,5.23,1.91,2.83,2.83,0,0,1,2,1.7l1.77,5.85a1.43,1.43,0,0,0,.69.85l3.62,2-2.05,4a1.43,1.43,0,0,0-.1,1.09,1.41,1.41,0,0,0,.68.85l3.88,2.09-1.91,3.69a1.5,1.5,0,0,0-.1,1.1,1.44,1.44,0,0,0,.69.84l5,2.69a1.38,1.38,0,0,0,.66.17,1.45,1.45,0,0,0,.41-.06,1.48,1.48,0,0,0,.83-.71l2.63-5.1a1.48,1.48,0,0,0,.1-1.09L39.15,30.69a2.45,2.45,0,0,1-.1-.66,1.45,1.45,0,0,0-1.42-1.42,1.42,1.42,0,0,0-1.39,1.45,5.64,5.64,0,0,0,.23,1.48l6.3,20.87-1.7,3.31-2.51-1.36,1.9-3.69a1.39,1.39,0,0,0,.1-1.09,1.41,1.41,0,0,0-.68-.85L36,46.64l2-4a1.45,1.45,0,0,0-.58-1.94l-4.35-2.34-1.6-5.29a5.64,5.64,0,0,0-4.23-3.68A12.6,12.6,0,0,1,23,27.85a1.39,1.39,0,0,0-1.92.52,1.46,1.46,0,0,0,.52,2" transform="translate(-0.85 -1.01)" fill="#646565"/></g></svg>