<svg xmlns="http://www.w3.org/2000/svg" xmlns:xlink="http://www.w3.org/1999/xlink" width="93.08" height="79.52" viewBox="0 0 93.08 79.52"><defs><clipPath id="a" transform="translate(-0.83 -1.13)"><rect x="0.57" y="0.87" width="93.61" height="80.04" fill="none"/></clipPath></defs><title>icon-criminal</title><g clip-path="url(#a)"><path d="M79.22,28.87A12.65,12.65,0,0,0,59.65,43.14l11.14,8.43a12.64,12.64,0,0,0,8.43-22.7Z" transform="translate(-0.83 -1.13)" fill="none" stroke="#646565" stroke-miterlimit="10" stroke-width="2.5"/><path d="M84.3,22.15a21.07,21.07,0,0,0-32.13,25L49.59,54,63,64.21,69,59.86A21.07,21.07,0,0,0,84.3,22.15Z" transform="translate(-0.83 -1.13)" fill="none" stroke="#646565" stroke-miterlimit="10" stroke-width="2.5"/><path d="M20,11.14a12.56,12.56,0,0,1,12.3,20.67L18.83,35.17a12.56,12.56,0,0,1,1.16-24Z" transform="translate(-0.83 -1.13)" fill="none" stroke="#646565" stroke-miterlimit="10" stroke-width="2.5"/><path d="M18,3A20.93,20.93,0,0,1,37.57,38.37l-.34,7.31L21,49.74l-3.73-6.3A20.93,20.93,0,0,1,18,3Z" transform="translate(-0.83 -1.13)" fill="none" stroke="#646565" stroke-miterlimit="10" stroke-width="2.5"/><path d="M33.84,54.91c0,3.85-2.26,6.94-4.94,6.89s-4.82-3.2-4.77-7,2.25-6.93,4.94-6.88S33.89,51.07,33.84,54.91Z" transform="translate(-0.83 -1.13)" fill="none" stroke="#646565" stroke-miterlimit="10" stroke-width="2.5"/><path d="M50.15,65.34c-1.32,3.62-.36,7.3,2.16,8.22s5.63-1.27,6.95-4.89.36-7.3-2.16-8.22S51.48,61.72,50.15,65.34Z" transform="translate(-0.83 -1.13)" fill="none" stroke="#646565" stroke-miterlimit="10" stroke-width="2.5"/><path d="M43.88,69.7c-3.85.29-6.8,2.69-6.6,5.36s3.48,4.6,7.33,4.31,6.8-2.69,6.59-5.36S47.73,69.41,43.88,69.7Z" transform="translate(-0.83 -1.13)" fill="none" stroke="#646565" stroke-miterlimit="10" stroke-width="2.5"/><path d="M37.64,65.67c-1.71-3.44-5-5.28-7.45-4.11s-3,4.92-1.27,8.36,5,5.28,7.45,4.1S39.35,69.11,37.64,65.67Z" transform="translate(-0.83 -1.13)" fill="none" stroke="#646565" stroke-miterlimit="10" stroke-width="2.5"/></g></svg>